# xmcd
#
# Track frame offsets:
#	150
#	28568
#	45481
#	72628
#	97952
#	116421
#	136294
#	148916
#	162444
#	176477
#	192917
#	206000
#	221372
#	236447
#	253130
#	262703
#	279069
#	300273
#	320209
#
# Disc length: 4528 seconds
#
# Revision: 2
# Processed by: cddbd v1.5.2PL0 Copyright (c) Steve Scherf et al.
# Submitted via: audiograbber 1.83.01
#
DISCID=0e11ae13
DTITLE=Various Artist - Groove with a Feeling - Sounds of Memphis
DYEAR=1975
DGENRE=R&B
TTITLE0=Lee Moore - You Can Bet I Can Get You Yet
TTITLE1=Erma Shaw - Ridin'
TTITLE2=Demetrius - One on One
TTITLE3=Louis Williams - Don't Fight It
TTITLE4=Lee Moore - What You Do for Love
TTITLE5=Freedom Express - Groove with a Feeling
TTITLE6=Unknown Artist - Do Your Thing
TTITLE7=Fran Farley - Cold Blooded Sally
TTITLE8=Everyday People - Politics
TTITLE9=Kannon - New Lang Syne
TTITLE10=Fran Farley - Got to Have My Own
TTITLE11=The Jacksonians - I'll Be Around
TTITLE12=Vision - Gone
TTITLE13=Donald O'Connor - We Need Love
TTITLE14=Fran Farley - Lord Give Me a Little of Your Heaven
TTITLE15=Lee Moore - What's in the Dark
TTITLE16=Erma Shaw - Attraction
TTITLE17=Demetrius and Takelia - Tighter Tighter
TTITLE18=Freedom Express - Dream Girl
EXTD=
EXTT0=
EXTT1=
EXTT2=
EXTT3=
EXTT4=
EXTT5=
EXTT6=
EXTT7=
EXTT8=
EXTT9=
EXTT10=
EXTT11=
EXTT12=
EXTT13=
EXTT14=
EXTT15=
EXTT16=
EXTT17=
EXTT18=
PLAYORDER=
